<svg xmlns="http://www.w3.org/2000/svg" width="682.667" height="682.667" version="1" viewBox="0 0 512 512"><path d="M3431 5040 c2 -69 7 -92 30 -139 16 -31 29 -58 29 -60 0 -13 -114 13 -162 37 l-58 29 0 -23 c0 -40 39 -129 75 -171 l34 -40 -31 -42 c-17 -23 -38 -41 -47 -40 -41 4 -70 -18 -90 -68 -25 -61 -9 -167 32 -207 8 -8 14 -36 15 -62 6 -132 61 -251 169 -360 74 -74 248 -184 292 -184 6 0 13 -4 16 -10 10 -16 -43 -217 -67 -256 -27 -41 -56 -54 -283 -116 -173 -47 -174 -47 -384 22 -151 49 -211 76 -211 93 0 18 -75 87 -93 87 -8 0 -26 28 -42 63 -80 178 -154 304 -286 482 -224 304 -515 521 -797 594 -218 58 -422 37 -608 -60 -126 -66 -267 -196 -356 -329 -125 -187 -234 -486 -264 -725 -3 -27 -8 -52 -9 -55 -6 -10 -18 -241 -18 -339 1 -93 6 -178 19 -311 7 -72 40 -270 46 -274 8 -7 169 -66 228 -85 92 -28 231 -60 298 -67 31 -3 61 -8 66 -11 14 -9 357 -11 421 -3 33 5 80 11 105 14 25 3 57 8 71 11 21 4 28 0 38 -21 12 -27 8 -44 -12 -44 -21 0 -150 -70 -207 -113 -166 -124 -302 -305 -406 -540 -130 -294 -216 -692 -228 -1047 l-1 -45 95 -72 c52 -41 137 -101 189 -135 l93 -62 -31 -9 c-17 -4 -38 -19 -47 -32 -51 -78 99 -199 263 -212 105 -8 153 18 144 80 -3 20 -5 20 39 7 19 -6 49 -13 65 -16 17 -3 35 -7 40 -8 6 -2 33 -6 60 -10 28 -5 59 -9 70 -11 11 -2 23 -4 28 -4 4 -1 5 -12 1 -25 -8 -32 39 -78 98 -96 92 -28 240 -15 304 27 29 18 47 69 34 93 -9 16 -2 20 68 35 305 66 555 174 801 347 l62 43 -5 95 c-3 52 -10 129 -16 170 -6 41 -12 89 -14 105 -6 43 -35 183 -48 230 -6 22 -12 45 -14 52 -8 40 -53 173 -91 269 -102 259 -225 455 -387 619 -165 168 -322 258 -518 300 -43 10 -78 22 -78 29 0 6 -3 34 -6 62 l-6 50 54 18 53 18 150 -50 c177 -60 301 -93 395 -107 36 -6 55 -16 90 -52 54 -54 95 -74 141 -67 59 10 122 47 146 87 4 8 44 36 88 62 44 26 125 78 181 116 l101 68 -38 -227 c-21 -125 -41 -240 -44 -257 -12 -64 -25 -158 -23 -161 2 -1 19 -6 38 -11 l35 -9 1 -180 c1 -158 11 -443 19 -574 2 -25 6 -119 10 -210 4 -91 8 -194 10 -230 12 -232 18 -366 19 -444 l1 -89 -38 -3 c-92 -8 -171 -47 -195 -97 -48 -100 181 -181 358 -128 41 13 76 31 93 49 29 31 30 33 42 327 3 72 7 177 10 235 3 58 7 150 10 205 2 55 7 168 11 250 4 83 7 160 8 173 0 12 3 19 7 15 3 -5 79 -192 169 -418 89 -225 168 -423 175 -440 7 -16 22 -54 33 -82 l20 -53 -52 -23 c-61 -29 -108 -70 -130 -114 -76 -152 253 -158 406 -9 21 20 41 49 44 63 7 25 -19 125 -92 366 -14 45 -34 111 -45 147 -10 36 -35 119 -55 185 -20 66 -40 134 -44 150 -4 17 -45 154 -90 305 -121 406 -160 540 -160 546 0 4 9 4 20 1 11 -3 20 0 21 6 0 7 2 19 4 28 1 8 6 64 9 125 4 60 8 127 10 149 2 22 7 87 11 145 3 58 8 130 10 160 2 30 6 89 9 130 3 41 8 100 11 130 2 30 7 102 11 160 3 58 7 121 9 140 2 19 6 85 10 145 4 61 8 126 10 145 6 66 18 235 19 263 1 25 4 27 46 28 25 0 53 2 62 4 9 2 34 6 55 9 85 13 203 55 234 82 8 8 19 14 23 14 25 0 129 100 168 162 17 27 32 37 58 42 74 12 145 125 130 208 -8 44 -33 76 -63 80 -14 2 -22 11 -23 28 -12 206 -174 491 -344 607 -114 77 -257 118 -405 116 -27 0 -99 -4 -160 -9 -60 -4 -127 -7 -148 -6 -56 2 -119 34 -177 88 l-51 48 2 -84z m-261 -1963 c67 -27 64 -27 228 -12 l63 6 -15 -28 c-35 -66 -264 -298 -418 -424 -54 -44 -59 -46 -113 -43 -31 1 -71 -3 -88 -11 -18 -7 -41 -9 -52 -5 -25 9 -74 3 -91 -11 -17 -14 -55 -7 -142 27 -107 42 -272 117 -272 123 1 3 38 31 83 61 45 30 113 81 152 114 85 71 243 233 279 285 25 36 26 39 11 73 l-15 36 163 -82 c89 -45 191 -94 227 -109z" transform="translate(0.000000,512.000000) scale(0.100000,-0.100000)"/></svg>